<svg width="25" height="25" viewBox="0 0 25 25" fill="none" xmlns="http://www.w3.org/2000/svg">
<path fill-rule="evenodd" clip-rule="evenodd" d="M24.5183 24.5026C25.1605 23.8397 25.1605 22.765 24.5183 22.1021L15.2152 12.5L24.5182 2.89805C25.1605 2.23516 25.1605 1.1604 24.5182 0.497508C23.876 -0.165385 22.8347 -0.165385 22.1924 0.497508L12.8894 10.0995L3.58601 0.497169C2.94375 -0.165723 1.90245 -0.165723 1.2602 0.497169C0.617943 1.16006 0.617943 2.23482 1.2602 2.89772L10.5636 12.5L1.26013 22.1024C0.617879 22.7653 0.617879 23.8401 1.26013 24.503C1.90239 25.1659 2.94369 25.1659 3.58594 24.503L12.8894 14.9006L22.1925 24.5026C22.8347 25.1655 23.876 25.1655 24.5183 24.5026Z" fill="white"/>
</svg>
