<svg width="22" height="13" viewBox="0 0 22 13" fill="none" xmlns="http://www.w3.org/2000/svg">
<path fill-rule="evenodd" clip-rule="evenodd" d="M0.437756 0.437756C-0.145918 1.02143 -0.145919 1.96775 0.437755 2.55143L9.10407 11.2177C9.17603 11.3741 9.27642 11.5206 9.40526 11.6495C9.71428 11.9585 10.125 12.1039 10.5296 12.0857C10.9328 12.1025 11.3414 11.957 11.6492 11.6492C11.7779 11.5206 11.8781 11.3744 11.9501 11.2183L20.6167 2.55163C21.2004 1.96796 21.2004 1.02164 20.6167 0.437962C20.0331 -0.145711 19.0868 -0.145711 18.5031 0.437962L10.5274 8.41368L2.55143 0.437755C1.96775 -0.145918 1.02143 -0.145918 0.437756 0.437756Z" fill="#7F4229" fill-opacity="0.9"/>
</svg>
