<svg width="15" height="9" viewBox="0 0 15 9" fill="none" xmlns="http://www.w3.org/2000/svg">
<path fill-rule="evenodd" clip-rule="evenodd" d="M0.292894 0.292893C-0.0976307 0.683417 -0.0976314 1.31658 0.292893 1.70711L6.09139 7.5056C6.13953 7.61021 6.2067 7.70823 6.29289 7.79442C6.49969 8.00121 6.77452 8.0985 7.04533 8.08629C7.31501 8.09751 7.58836 8.00017 7.79427 7.79427C7.88031 7.70823 7.94739 7.61041 7.99552 7.50601L13.7943 1.70726C14.1848 1.31673 14.1848 0.683569 13.7943 0.293044C13.4037 -0.09748 12.7706 -0.0974807 12.3801 0.293044L7.04366 5.62944L1.70711 0.292893C1.31658 -0.0976311 0.683418 -0.0976311 0.292894 0.292893Z" fill="#7F4229"/>
</svg>
